# xmcd
#
# Track frame offsets:
#	150
#	14717
#	27207
#	42537
#	58035
#	71035
#	82120
#	95287
#	109795
#	125147
#	139207
#	154137
#	169245
#	184650
#	200300
#	214760
#	229545
#	243390
#	257172
#	272847
#
# Disc length: 3846 seconds
#
# Revision: 1
# Processed by: cddbd v1.5.1PL0 Copyright (c) Steve Scherf et al.
# Submitted via: audiograbber 1.82.02
#
DISCID=2a0f0414
DTITLE=Gleen Miller - Starring Glenn Miller CD 2
DYEAR=1900
DGENRE=Country
TTITLE0=Pennsylvania 6-5000
TTITLE1=Say It
TTITLE2=Stardust
TTITLE3=Tuxedo Junction
TTITLE4=When You Wish Upon A Star
TTITLE5=Yes My Darling Daughter
TTITLE6=Adios
TTITLE7=A String Of Pearls
TTITLE8=Chattanooga Choo Choo
TTITLE9=Elmer's Tune
TTITLE10=Moonlight Cocktail
TTITLE11=Perfidia
TTITLE12=Song Of The Volga Boatman
TTITLE13=The Spirit Is Willing
TTITLE14=Don't Sit Under The Apple Tree (With Anyone Else But Me)
TTITLE15=(I've Got A Girl In) Kalamazoo
TTITLE16=Jukebox Saturday Night
TTITLE17=Rhapsody In Blue
TTITLE18=Serenade In Blue
TTITLE19=The Story Of A Starry Night
EXTD=
EXTT0=
EXTT1=
EXTT2=
EXTT3=
EXTT4=
EXTT5=
EXTT6=
EXTT7=
EXTT8=
EXTT9=
EXTT10=
EXTT11=
EXTT12=
EXTT13=
EXTT14=
EXTT15=
EXTT16=
EXTT17=
EXTT18=
EXTT19=
PLAYORDER=
